<svg width="53" height="55" viewBox="0 0 53 55" fill="none" xmlns="http://www.w3.org/2000/svg">
<mask id="mask0_1225_572" style="mask-type:alpha" maskUnits="userSpaceOnUse" x="9" y="29" width="44" height="26">
<path d="M51.4022 40.1634C51.0129 39.939 50.505 39.8032 49.9893 39.7857C49.4736 39.7682 48.9919 39.8704 48.6496 40.07L46.8014 41.1473C46.4575 41.3476 45.9735 41.4498 45.4556 41.4313C44.9377 41.4127 44.4283 41.275 44.0396 41.0485C43.6509 40.8219 43.4147 40.5251 43.3828 40.2232C43.3511 39.9213 43.5264 39.6392 43.8702 39.4388L45.846 38.2872C46.1897 38.0869 46.365 37.8047 46.3332 37.5028C46.3015 37.2009 46.0652 36.904 45.6766 36.6775C45.2878 36.4509 44.7785 36.3133 44.2606 36.2947C43.7426 36.2762 43.2585 36.3784 42.9148 36.5787C42.9148 36.5787 26.0134 46.4636 25.6593 46.6362C25.3052 46.8089 24.8351 46.8887 24.343 46.8599C23.8508 46.8311 23.3726 46.6957 23.0038 46.4807C22.635 46.2658 22.4028 45.9871 22.3533 45.7002C22.3039 45.4134 22.4409 45.1394 22.7371 44.933L31.3648 39.9043L39.9926 34.8755C40.3363 34.6752 40.5117 34.393 40.4798 34.0911C40.4481 33.7892 40.2119 33.4924 39.8232 33.2658C39.4345 33.0393 38.9251 32.9016 38.4072 32.8831C37.8893 32.8645 37.4052 32.9667 37.0614 33.1671L29.191 37.7544C29.0287 37.8676 28.8234 37.9568 28.5883 38.0167C28.3531 38.0765 28.0932 38.1057 27.8247 38.1022C27.5561 38.0988 27.2849 38.0628 27.0281 37.9966C26.7712 37.9305 26.5342 37.8355 26.332 37.7176C26.1299 37.5998 25.9668 37.4617 25.8533 37.3119C25.7398 37.1623 25.6781 37.0042 25.6722 36.8476C25.6662 36.6911 25.7163 36.5396 25.8189 36.4026C25.9216 36.2655 26.0748 36.1459 26.269 36.0513L34.1393 31.464C34.483 31.2636 34.6583 30.9814 34.6266 30.6796C34.5948 30.3777 34.3586 30.0808 33.9699 29.8543C33.5812 29.6277 33.0719 29.49 32.5539 29.4715C32.0359 29.453 31.5519 29.5552 31.2082 29.7555L9.68818 42.2986C9.34438 42.499 9.16908 42.7811 9.20094 43.083C9.23272 43.3848 9.46887 43.6817 9.85762 43.9083C10.2463 44.1348 10.7557 44.2725 11.2736 44.291C11.7915 44.3095 12.2755 44.2074 12.6194 44.007L21.8444 38.6301C22.1985 38.4575 22.6685 38.3776 23.1607 38.4064C23.6529 38.4353 24.131 38.5706 24.4998 38.7855C24.8686 39.0005 25.1008 39.2792 25.1503 39.5661C25.1997 39.8529 25.0626 40.1269 24.7664 40.3333L15.5414 45.7102C15.1977 45.9105 15.0224 46.1927 15.0541 46.4946C15.0859 46.7964 15.3222 47.0933 15.7108 47.3199C16.0996 47.5464 16.6089 47.6841 17.1268 47.7026C17.6448 47.7212 18.1288 47.6189 18.4726 47.4186C18.6528 47.3135 18.7951 47.2802 18.9153 47.2496C19.1504 47.1897 19.4105 47.1607 19.679 47.1641C19.9475 47.1675 20.2187 47.2035 20.4756 47.2697C20.7324 47.3359 20.9694 47.4309 21.1715 47.5487C21.3737 47.6665 21.5366 47.8046 21.6503 47.9544C21.7638 48.1041 21.8255 48.2622 21.8315 48.4187C21.8373 48.5751 21.7875 48.7267 21.6848 48.8638C21.5821 49.0008 21.5774 49.0154 21.3947 49.1218C21.0509 49.3222 20.8416 49.5845 20.8735 49.8864C20.9053 50.1883 21.1414 50.4851 21.5302 50.7117C21.9188 50.9382 22.4282 51.0759 22.9461 51.0944C23.464 51.113 23.9481 51.0108 24.2919 50.8105L39.4376 42.0224C39.7814 41.822 40.2654 41.7198 40.7833 41.7383C41.3013 41.7569 41.8106 41.8945 42.1994 42.1211C42.588 42.3476 42.8243 42.6445 42.856 42.9464C42.8878 43.2483 42.7126 43.5304 42.3688 43.7308L27.3589 52.4794C27.1647 52.574 27.0115 52.6937 26.9089 52.8307C26.8062 52.9678 26.7561 53.1193 26.7621 53.2758C26.768 53.4323 26.8298 53.5904 26.9433 53.7401C27.0568 53.8898 27.2198 54.028 27.4219 54.1458C27.6241 54.2636 27.8611 54.3585 28.118 54.4248C28.3749 54.4909 28.6461 54.5269 28.9146 54.5304C29.1831 54.5339 29.4431 54.5047 29.6783 54.4449C29.9134 54.3851 30.1186 54.2957 30.2809 54.1825L51.5796 41.7685C51.9196 41.5675 52.0919 41.286 52.0587 40.9853C52.0253 40.6845 51.7894 40.3891 51.4022 40.1634Z" fill="url(#paint0_linear_1225_572)"/>
</mask>
<g mask="url(#mask0_1225_572)">
<path d="M51.4022 40.1634C51.0129 39.939 50.505 39.8032 49.9893 39.7857C49.4736 39.7682 48.9919 39.8704 48.6496 40.07L46.8014 41.1473C46.4575 41.3476 45.9735 41.4498 45.4556 41.4313C44.9377 41.4127 44.4283 41.275 44.0396 41.0485C43.6509 40.8219 43.4147 40.5251 43.3828 40.2232C43.3511 39.9213 43.5264 39.6392 43.8702 39.4388L45.846 38.2872C46.1897 38.0869 46.365 37.8047 46.3332 37.5028C46.3015 37.2009 46.0652 36.904 45.6766 36.6775C45.2878 36.4509 44.7785 36.3133 44.2606 36.2947C43.7426 36.2762 43.2585 36.3784 42.9148 36.5787C42.9148 36.5787 26.0134 46.4636 25.6593 46.6362C25.3052 46.8089 24.8351 46.8887 24.343 46.8599C23.8508 46.8311 23.3726 46.6957 23.0038 46.4807C22.635 46.2658 22.4028 45.9871 22.3533 45.7002C22.3039 45.4134 22.4409 45.1394 22.7371 44.933L31.3648 39.9043L39.9926 34.8755C40.3363 34.6752 40.5117 34.393 40.4798 34.0911C40.4481 33.7892 40.2119 33.4924 39.8232 33.2658C39.4345 33.0393 38.9251 32.9016 38.4072 32.8831C37.8893 32.8645 37.4052 32.9667 37.0614 33.1671L29.191 37.7544C29.0287 37.8676 28.8234 37.9568 28.5883 38.0167C28.3531 38.0765 28.0932 38.1057 27.8247 38.1022C27.5561 38.0988 27.2849 38.0628 27.0281 37.9966C26.7712 37.9305 26.5342 37.8355 26.332 37.7176C26.1299 37.5998 25.9668 37.4617 25.8533 37.3119C25.7398 37.1623 25.6781 37.0042 25.6722 36.8476C25.6662 36.6911 25.7163 36.5396 25.8189 36.4026C25.9216 36.2655 26.0748 36.1459 26.269 36.0513L34.1393 31.464C34.483 31.2636 34.6583 30.9814 34.6266 30.6796C34.5948 30.3777 34.3586 30.0808 33.9699 29.8543C33.5812 29.6277 33.0719 29.49 32.5539 29.4715C32.0359 29.453 31.5519 29.5552 31.2082 29.7555L9.68818 42.2986C9.34438 42.499 9.16908 42.7811 9.20094 43.083C9.23271 43.3848 9.46887 43.6817 9.85761 43.9083C10.2463 44.1348 10.7557 44.2725 11.2736 44.291C11.7915 44.3095 12.2755 44.2074 12.6193 44.007L21.8444 38.6301C22.1985 38.4575 22.6685 38.3776 23.1607 38.4064C23.6529 38.4353 24.131 38.5706 24.4998 38.7855C24.8686 39.0005 25.1008 39.2792 25.1503 39.5661C25.1997 39.8529 25.0626 40.1269 24.7664 40.3333L15.5414 45.7102C15.1977 45.9105 15.0224 46.1927 15.0541 46.4946C15.0859 46.7964 15.3222 47.0933 15.7108 47.3199C16.0996 47.5464 16.6089 47.6841 17.1268 47.7026C17.6448 47.7212 18.1288 47.6189 18.4726 47.4186C18.6528 47.3135 18.7951 47.2802 18.9153 47.2496C19.1504 47.1897 19.4105 47.1607 19.679 47.1641C19.9475 47.1675 20.2187 47.2035 20.4756 47.2697C20.7324 47.3359 20.9694 47.4309 21.1715 47.5487C21.3737 47.6665 21.5366 47.8046 21.6503 47.9544C21.7638 48.1041 21.8255 48.2622 21.8315 48.4187C21.8373 48.5751 21.7875 48.7267 21.6848 48.8638C21.5821 49.0008 21.5774 49.0154 21.3947 49.1218C21.0509 49.3222 20.8416 49.5845 20.8735 49.8864C20.9053 50.1883 21.1414 50.4851 21.5302 50.7117C21.9188 50.9382 22.4282 51.0759 22.9461 51.0944C23.464 51.113 23.9481 51.0108 24.2919 50.8105L39.4376 42.0224C39.7814 41.822 40.2654 41.7198 40.7833 41.7383C41.3013 41.7569 41.8106 41.8945 42.1994 42.1211C42.588 42.3476 42.8243 42.6445 42.856 42.9464C42.8878 43.2483 42.7126 43.5304 42.3688 43.7308L27.3589 52.4794C27.1647 52.574 27.0115 52.6937 26.9089 52.8307C26.8062 52.9678 26.7561 53.1193 26.7621 53.2758C26.768 53.4323 26.8298 53.5904 26.9433 53.7401C27.0568 53.8898 27.2198 54.028 27.4219 54.1458C27.6241 54.2636 27.8611 54.3585 28.118 54.4248C28.3749 54.491 28.6461 54.5269 28.9146 54.5304C29.1831 54.5339 29.4431 54.5047 29.6783 54.4449C29.9134 54.3851 30.1186 54.2957 30.2809 54.1825L51.5796 41.7685C51.9196 41.5675 52.0919 41.286 52.0587 40.9853C52.0253 40.6845 51.7894 40.3891 51.4022 40.1634Z" fill="#0B67C3"/>
<g filter="url(#filter0_f_1225_572)">
<path d="M25.631 50.4794C26.5853 51.0356 28.1325 51.0356 29.0868 50.4794L46.1265 40.5477C47.0808 39.9915 47.0808 39.0897 46.1265 38.5334L30.948 29.6866C29.9937 29.1304 28.4465 29.1304 27.4922 29.6866L10.4525 39.6183C9.49821 40.1745 9.49821 41.0763 10.4525 41.6325L25.631 50.4794Z" fill="url(#paint1_linear_1225_572)"/>
</g>
</g>
<path d="M7 19.0541C7 17.9495 7.77361 16.6032 8.72792 16.047L29.3845 4.00715C30.3388 3.45093 31.1124 3.89546 31.1124 5.00003L31.1124 24.8919C31.1124 25.9965 30.3388 27.3428 29.3845 27.899L8.72792 39.9388C7.77362 40.4951 7 40.0505 7 38.946L7 19.0541Z" fill="#0B67C3"/>
<g filter="url(#filter1_d_1225_572)">
<path d="M8.80859 20.1082C8.80859 19.0036 9.58221 17.6572 10.5365 17.101L27.5762 7.16934C28.5305 6.61312 29.3041 7.05764 29.3041 8.16221L29.3041 23.8379C29.3041 24.9425 28.5305 26.2888 27.5762 26.845L10.5365 36.7767C9.58221 37.3329 8.80859 36.8884 8.80859 35.7838L8.80859 20.1082Z" fill="url(#paint2_linear_1225_572)"/>
</g>
<defs>
<filter id="filter0_f_1225_572" x="7.73682" y="27.2694" width="41.1055" height="25.6271" filterUnits="userSpaceOnUse" color-interpolation-filters="sRGB">
<feFlood flood-opacity="0" result="BackgroundImageFix"/>
<feBlend mode="normal" in="SourceGraphic" in2="BackgroundImageFix" result="shape"/>
<feGaussianBlur stdDeviation="1" result="effect1_foregroundBlur_1225_572"/>
</filter>
<filter id="filter1_d_1225_572" x="0.808594" y="0.929565" width="40.4956" height="50.0869" filterUnits="userSpaceOnUse" color-interpolation-filters="sRGB">
<feFlood flood-opacity="0" result="BackgroundImageFix"/>
<feColorMatrix in="SourceAlpha" type="matrix" values="0 0 0 0 0 0 0 0 0 0 0 0 0 0 0 0 0 0 127 0" result="hardAlpha"/>
<feOffset dx="2" dy="4"/>
<feGaussianBlur stdDeviation="5"/>
<feComposite in2="hardAlpha" operator="out"/>
<feColorMatrix type="matrix" values="0 0 0 0 0.180392 0 0 0 0 0.619608 0 0 0 0 0.890196 0 0 0 0.4 0"/>
<feBlend mode="normal" in2="BackgroundImageFix" result="effect1_dropShadow_1225_572"/>
<feBlend mode="normal" in="SourceGraphic" in2="effect1_dropShadow_1225_572" result="shape"/>
</filter>
<linearGradient id="paint0_linear_1225_572" x1="31.2753" y1="43.8552" x2="11.7182" y2="66.7575" gradientUnits="userSpaceOnUse">
<stop stop-color="#584842"/>
<stop offset="1" stop-color="#302C2B"/>
</linearGradient>
<linearGradient id="paint1_linear_1225_572" x1="37.6066" y1="45.5135" x2="17.0433" y2="31.5788" gradientUnits="userSpaceOnUse">
<stop stop-color="#44A0D9"/>
<stop offset="1" stop-color="#1574AE"/>
</linearGradient>
<linearGradient id="paint2_linear_1225_572" x1="19.0564" y1="12.1352" x2="21.8495" y2="34.4987" gradientUnits="userSpaceOnUse">
<stop stop-color="#68C6FF"/>
<stop offset="1" stop-color="#2396DD"/>
</linearGradient>
</defs>
</svg>
