<svg width="190" height="25" viewBox="0 0 190 25" fill="none" xmlns="http://www.w3.org/2000/svg">
<path d="M101.047 24.218C104.795 24.2248 108.619 22.1649 110.811 19.1756C113.816 15.0782 112.629 4.06499 107.66 3.00574C104.282 2.28575 101.104 1.58664 98.5753 1.018C98.1068 0.912642 97.6329 0.860168 97.1526 0.860168H81.7581C76.3857 1.12182 65.1319 4.20928 63.0961 14.4659C61.5561 22.2242 67.7656 22.4872 73.4826 20.9848C76.6647 20.1486 81.1717 21.5662 84.445 21.8998C89.6745 22.4327 95.7902 24.2084 101.047 24.218Z" fill="white"/>
<path d="M174.432 19.1756C180.158 23.8853 186.096 19.1756 188.004 14.4659C190.119 9.24747 191.785 3.57066 186.225 2.68071C175.357 0.940993 161.549 2.77805 160.223 7.13974C158.315 13.4193 168.706 14.4659 174.432 19.1756Z" fill="white"/>
<path d="M12.3505 22.427C13.4595 21.8319 14.4038 20.7672 14.9566 19.1756C17.9298 10.6163 19.043 2.40577 10.7747 6.11198C6.35553 8.09283 2.40838 11.2794 0.74807 14.4659C-1.7136 19.1905 7.65613 24.9458 12.3505 22.427Z" fill="white"/>
</svg>
